<svg class="svg-icon" style="width: 1em; height: 1em;vertical-align: middle;fill: currentColor;overflow: hidden;" viewBox="0 0 1024 1024" version="1.1" xmlns="http://www.w3.org/2000/svg"><path d="M494.503 617.691l1.553 251.29h32.86V620.224L636.9 720.943l24.893-21.666-150.498-140.015-158.353 128.675 21.997 24.374zM291.09 441.656h300.617v32.91H291.089v-32.91zM291.09 299.55h395.357v32.91H291.089v-32.91zM291.09 181.12h442.743v32.912H291.089V181.12z"  /><path d="M200.005 182.284c0.492-3.832 5.335-37.363 25.22-53.28 19.368-15.48 56.023-19.59 68.596-19.871h456.683c1.65 0.055 46.226 1.837 69.2 20.207 18.815 15.062 23.876 45.625 24.767 52.23v616.393h30.236l-0.024-617.984-0.036-0.364c-0.488-5-5.638-49.546-36.04-73.876-30.883-24.719-81.924-26.7-87.642-26.845H293.438c-5.674 0.119-56.315 1.879-87.11 26.49-32.213 25.81-36.455 74.583-36.493 75.073l-0.024 0.299v638.979h30.227l-0.033-637.451z"  /><path d="M999.732 887.014V723.122h-36.306v166.531l0.57 3.598c-0.185 1.077-1.785 4.198-7.56 8.042-11.129 7.414-36.712 16.263-55.787 21.756H147.748c-16-4.335-42.504-13-53.112-20.074-8.951-5.966-9.678-10.835-9.733-11.42l0.019-0.218 0.226-168.215h-36.32v164.774c-0.648 6.928-0.18 28.068 25.649 45.284 18.458 12.315 55.266 22.665 66.11 25.546l1.306 0.35 763.702 0.283 2.413-0.647c4.845-1.34 47.942-13.48 68.562-27.204 25.197-16.786 24.422-37.199 23.162-44.494z"  /></svg>